<svg width="25" height="25" viewBox="0 0 25 25" fill="none" xmlns="http://www.w3.org/2000/svg">
<g clip-path="url(#clip0)">
<path d="M17.75 2.5C18.026 2.5 18.25 2.724 18.25 3V22C18.25 22.276 18.026 22.5 17.75 22.5H6.75C6.474 22.5 6.25 22.276 6.25 22V3C6.25 2.724 6.474 2.5 6.75 2.5H17.75ZM20.25 2.5C20.25 1.396 19.354 0.5 18.25 0.5H6.25C5.146 0.5 4.25 1.396 4.25 2.5V22.5C4.25 23.604 5.146 24.5 6.25 24.5H18.25C19.354 24.5 20.25 23.604 20.25 22.5V2.5ZM10.75 3.5H13.75C14.026 3.5 14.25 3.724 14.25 4.001C14.25 4.276 14.026 4.5 13.75 4.5H10.75C10.475 4.5 10.25 4.276 10.25 4.001C10.25 3.724 10.475 3.5 10.75 3.5ZM12.25 21.5C11.697 21.5 11.25 21.052 11.25 20.5C11.25 19.948 11.697 19.5 12.25 19.5C12.802 19.5 13.249 19.948 13.249 20.5C13.249 21.052 12.802 21.5 12.25 21.5ZM17.25 18.5H7.25V5.5H17.25V18.5Z" fill="#F2994A"/>
</g>
<defs>
<clipPath id="clip0">
<rect width="24" height="24" fill="white" transform="translate(0.25 0.5)"/>
</clipPath>
</defs>
</svg>
